<?xml version="1.0" standalone="no"?>
<!DOCTYPE svg PUBLIC "-//W3C//DTD SVG 20010904//EN"
 "http://www.w3.org/TR/2001/REC-SVG-20010904/DTD/svg10.dtd">
<svg version="1.0" xmlns="http://www.w3.org/2000/svg"
 width="100.000000pt" height="100.000000pt" viewBox="0 0 100.000000 100.000000"
 preserveAspectRatio="xMidYMid meet">
<metadata>
Created by potrace 1.11, written by Peter Selinger 2001-2013
</metadata>
<g transform="translate(0.000000,100.000000) scale(0.100000,-0.100000)"
fill="#000000" stroke="none">
<path d="M475 820 c-11 -4 -26 -5 -34 -2 -9 3 -12 1 -7 -6 6 -11 -19 -18 -46
-13 -5 0 -8 -3 -8 -7 0 -5 -6 -9 -12 -9 -22 -1 -43 -8 -49 -16 -3 -4 -22 -9
-41 -10 -20 -1 -35 -4 -33 -7 2 -3 -8 -10 -21 -17 -13 -6 -21 -7 -18 -2 3 5
-11 0 -30 -11 -20 -11 -40 -19 -44 -18 -12 4 -112 -33 -112 -41 0 -4 9 -16 20
-26 11 -10 20 -15 20 -10 0 4 6 3 12 -2 7 -6 21 -9 31 -8 9 2 15 -1 12 -5 -3
-5 -1 -11 4 -14 10 -7 3 -46 -8 -46 -8 0 -9 -8 -12 -55 -1 -14 -5 -25 -9 -25
-4 0 -11 -10 -17 -22 -12 -26 0 -68 18 -68 8 0 7 -5 -2 -17 -10 -12 -10 -15
-1 -9 10 6 10 1 1 -21 -25 -62 -52 -112 -58 -108 -4 2 -12 -5 -19 -15 -9 -14
-8 -19 4 -24 8 -3 13 -9 10 -14 -4 -7 11 -11 56 -13 24 -1 59 34 61 60 1 11 5
21 10 21 5 0 4 6 -2 14 -8 10 -9 16 -1 21 5 3 10 11 10 16 0 6 -4 8 -8 5 -4
-2 -9 5 -9 17 -2 14 1 17 6 9 5 -8 8 -1 8 18 0 21 -3 27 -10 18 -6 -9 -6 -4
-2 12 15 52 17 90 6 90 -6 0 -11 14 -11 30 0 17 5 30 11 30 5 0 7 5 4 10 -8
13 63 83 75 75 6 -4 10 -1 10 4 0 6 5 11 10 11 6 0 29 9 52 20 22 11 44 17 48
15 4 -3 13 2 20 10 7 8 21 15 31 15 10 0 21 5 25 11 3 6 17 9 30 6 13 -2 24 0
24 5 0 5 5 6 10 3 6 -3 10 0 10 7 1 8 4 7 10 -4 11 -18 3 -51 -10 -43 -5 3
-11 1 -15 -4 -3 -5 -14 -8 -25 -6 -11 2 -19 -1 -17 -8 1 -6 -5 -12 -13 -12
-30 -2 -70 -17 -70 -27 0 -5 -4 -6 -10 -3 -8 5 -90 -30 -90 -39 0 -2 8 -10 17
-17 10 -8 14 -9 10 -2 -5 7 4 6 23 -3 16 -9 35 -12 41 -8 8 4 9 3 5 -4 -4 -8
0 -12 11 -12 11 0 25 -6 32 -12 11 -11 12 -10 6 2 -6 12 -5 13 6 3 7 -7 24
-13 37 -13 13 0 21 -4 18 -9 -3 -5 10 -9 29 -9 19 0 35 3 35 7 0 4 12 8 27 9
15 1 30 7 33 13 4 5 11 9 16 8 26 -5 45 2 38 14 -5 7 0 6 11 -3 10 -8 16 -10
12 -4 -6 10 35 25 59 23 3 0 17 7 31 16 17 12 23 13 18 4 -6 -11 -5 -12 6 -1
7 6 21 12 32 12 10 0 16 4 12 9 -3 6 4 8 15 6 11 -2 20 0 20 5 0 5 9 7 20 5
11 -2 18 0 15 6 -4 5 3 9 14 9 29 0 71 21 71 36 0 13 -92 49 -122 48 -10 -1
-15 3 -12 7 3 5 -3 9 -14 9 -10 0 -22 3 -26 8 -8 7 -14 9 -47 11 -11 0 -18 5
-15 9 4 7 -10 11 -51 14 -7 1 -13 4 -13 8 0 6 -16 10 -53 11 -9 0 -15 4 -12
10 4 5 -3 9 -15 9 -12 0 -29 4 -38 9 -29 14 -66 19 -87 11z"/>
<path d="M198 490 c-3 -20 0 -30 9 -30 13 0 17 -16 14 -55 -2 -17 0 -17 8 -5
15 21 13 4 -1 -20 -16 -26 -1 -54 32 -58 18 -3 20 -6 9 -13 -10 -6 -2 -9 24
-9 20 0 37 -3 37 -7 0 -8 50 -15 107 -16 18 0 31 -3 29 -6 -2 -3 7 -6 20 -6
13 0 24 3 24 8 0 4 5 7 11 7 5 0 8 -4 5 -8 -3 -5 1 -9 9 -9 8 0 12 3 10 7 -3
5 17 7 117 13 9 1 14 5 12 9 -3 4 8 8 24 8 15 0 38 9 50 20 12 12 22 18 22 15
0 -3 8 3 18 13 10 9 17 27 16 40 -1 12 2 22 7 22 5 0 9 5 9 11 0 5 -4 7 -10 4
-14 -9 -12 8 3 24 10 11 10 13 0 7 -7 -4 -13 -2 -13 3 0 6 5 11 10 11 6 0 10
5 10 11 0 5 -5 7 -11 3 -8 -4 -9 0 -4 15 6 19 2 21 -28 21 -20 0 -37 -4 -39
-10 -1 -5 -15 -11 -30 -12 -15 -1 -24 -6 -22 -10 3 -4 -9 -8 -26 -8 -17 0 -29
-3 -27 -7 3 -5 -9 -9 -26 -10 -17 -1 -33 -6 -36 -10 -3 -5 -15 -10 -26 -11
-11 -2 -25 -8 -31 -13 -6 -5 -14 -5 -20 1 -5 5 -24 10 -41 12 -17 1 -29 6 -27
10 3 4 -9 8 -26 8 -19 0 -29 4 -25 10 4 6 3 10 -2 9 -29 -5 -53 2 -47 14 5 7
0 6 -11 -3 -11 -9 -16 -10 -11 -2 7 11 -10 17 -41 13 -6 -1 -14 3 -18 9 -14
22 -43 10 -47 -20z"/>
</g>
</svg>
